<svg width="202" height="202" viewBox="0 0 202 202" fill="none" xmlns="http://www.w3.org/2000/svg">
<circle cx="101" cy="101" r="96" fill="white"/>
<path d="M105.49 29.5822H96.5109C93.9734 29.5822 92.033 31.8439 92.4189 34.3519L95.5345 54.6037C95.7018 55.6908 96.6371 56.4932 97.737 56.4932C98.9677 56.4932 99.9654 57.4909 99.9654 58.7216V96.8598C99.9654 97.4314 100.429 97.8949 101 97.8949C101.572 97.8949 102.035 97.4314 102.035 96.8598V58.7216C102.035 57.4909 103.033 56.4932 104.264 56.4932C105.364 56.4932 106.299 55.6908 106.466 54.6037L109.582 34.3519C109.968 31.8439 108.027 29.5822 105.49 29.5822Z" fill="black"/>
<path d="M96.5108 172.418H105.49C108.027 172.418 109.968 170.156 109.582 167.648L106.466 147.396C106.299 146.309 105.364 145.507 104.264 145.507C103.033 145.507 102.035 144.509 102.035 143.278L102.035 105.14C102.035 104.568 101.572 104.105 101 104.105C100.429 104.105 99.9653 104.568 99.9653 105.14L99.9653 143.278C99.9653 144.509 98.9676 145.507 97.7369 145.507C96.637 145.507 95.7017 146.309 95.5344 147.396L92.4187 167.648C92.0329 170.156 93.9733 172.418 96.5108 172.418Z" fill="black"/>
<path d="M29.5825 96.5104V105.49C29.5825 108.027 31.8443 109.967 34.3522 109.582L54.604 106.466C55.6911 106.299 56.4936 105.363 56.4936 104.263C56.4936 103.033 57.4913 102.035 58.722 102.035H96.8601C97.4318 102.035 97.8952 101.572 97.8952 101C97.8952 100.428 97.4318 99.9649 96.8601 99.9649H58.722C57.4913 99.9649 56.4936 98.9673 56.4936 97.7365C56.4936 96.6367 55.6911 95.7013 54.604 95.5341L34.3522 92.4184C31.8443 92.0326 29.5825 93.973 29.5825 96.5104Z" fill="black"/>
<path d="M172.418 105.49V96.5104C172.418 93.973 170.156 92.0326 167.649 92.4184L147.397 95.5341C146.31 95.7013 145.507 96.6367 145.507 97.7365C145.507 98.9672 144.509 99.9649 143.279 99.9649L105.141 99.9649C104.569 99.9649 104.106 100.428 104.106 101C104.106 101.572 104.569 102.035 105.141 102.035L143.279 102.035C144.509 102.035 145.507 103.033 145.507 104.263C145.507 105.363 146.31 106.299 147.397 106.466L167.649 109.582C170.156 109.967 172.418 108.027 172.418 105.49Z" fill="black"/>
<path d="M53.6744 47.3254L47.3252 53.6746C45.531 55.4688 45.7582 58.4402 47.8044 59.9408L64.3277 72.0579C65.2146 72.7083 66.4435 72.6143 67.2212 71.8366C68.0914 70.9664 69.5024 70.9664 70.3726 71.8366L97.3404 98.8044C97.7446 99.2086 98.3999 99.2086 98.8041 98.8044C99.2084 98.4002 99.2084 97.7448 98.8041 97.3406L71.8364 70.3728C70.9661 69.5026 70.9661 68.0917 71.8364 67.2214C72.6141 66.4437 72.7081 65.2149 72.0577 64.3279L59.9406 47.8046C58.44 45.7584 55.4686 45.5312 53.6744 47.3254Z" fill="black"/>
<path d="M148.325 154.675L154.674 148.325C156.469 146.531 156.241 143.56 154.195 142.059L137.672 129.942C136.785 129.292 135.556 129.386 134.778 130.163C133.908 131.034 132.497 131.034 131.627 130.163L104.659 103.196C104.255 102.791 103.6 102.791 103.195 103.196C102.791 103.6 102.791 104.255 103.195 104.659L130.163 131.627C131.033 132.497 131.033 133.908 130.163 134.779C129.385 135.556 129.291 136.785 129.942 137.672L142.059 154.195C143.559 156.242 146.531 156.469 148.325 154.675Z" fill="black"/>
<path d="M47.3254 148.325L53.6745 154.675C55.4688 156.469 58.4402 156.242 59.9407 154.195L72.0578 137.672C72.7082 136.785 72.6143 135.556 71.8365 134.779C70.9663 133.908 70.9663 132.497 71.8365 131.627L98.8043 104.659C99.2085 104.255 99.2085 103.6 98.8043 103.196C98.4001 102.791 97.7447 102.791 97.3405 103.196L70.3728 130.163C69.5025 131.034 68.0916 131.034 67.2214 130.163C66.4436 129.386 65.2148 129.292 64.3279 129.942L47.8046 142.059C45.7584 143.56 45.5311 146.531 47.3254 148.325Z" fill="black"/>
<path d="M154.675 53.6746L148.326 47.3255C146.531 45.5312 143.56 45.7585 142.06 47.8047L129.942 64.328C129.292 65.2149 129.386 66.4437 130.164 67.2215C131.034 68.0917 131.034 69.5026 130.164 70.3729L103.196 97.3406C102.792 97.7448 102.792 98.4002 103.196 98.8044C103.6 99.2086 104.256 99.2086 104.66 98.8044L131.627 71.8366C132.498 70.9664 133.909 70.9664 134.779 71.8366C135.557 72.6144 136.785 72.7083 137.672 72.0579L154.196 59.9408C156.242 58.4403 156.469 55.4689 154.675 53.6746Z" fill="black"/>
<path d="M128 100.5C128 115.688 115.688 128 100.5 128C85.3122 128 73 115.688 73 100.5C73 85.3122 85.3122 73 100.5 73C115.688 73 128 85.3122 128 100.5ZM74.7021 100.5C74.7021 114.748 86.2522 126.298 100.5 126.298C114.748 126.298 126.298 114.748 126.298 100.5C126.298 86.2522 114.748 74.7021 100.5 74.7021C86.2522 74.7021 74.7021 86.2522 74.7021 100.5Z" fill="black"/>
</svg>
