<svg width="457" height="59" viewBox="0 0 457 59" fill="none" xmlns="http://www.w3.org/2000/svg">
<path d="M30.8115 8.64034H28.1889C27.4478 8.64034 26.8811 9.30096 26.9937 10.0335L27.9038 15.9486C27.9526 16.2661 28.2258 16.5005 28.5471 16.5005C28.9065 16.5005 29.1979 16.7919 29.1979 17.1514V28.2907C29.1979 28.4577 29.3333 28.5931 29.5002 28.5931C29.6672 28.5931 29.8026 28.4577 29.8026 28.2907V17.1514C29.8026 16.7919 30.094 16.5005 30.4534 16.5005C30.7747 16.5005 31.0479 16.2661 31.0967 15.9486L32.0067 10.0335C32.1194 9.30096 31.5527 8.64034 30.8115 8.64034Z" fill="black"/>
<path d="M28.1888 50.3596H30.8114C31.5525 50.3596 32.1193 49.699 32.0066 48.9665L31.0966 43.0514C31.0477 42.7339 30.7745 42.4995 30.4533 42.4995C30.0938 42.4995 29.8024 42.2081 29.8024 41.8486L29.8024 30.7092C29.8024 30.5423 29.667 30.4069 29.5001 30.4069C29.3331 30.4069 29.1978 30.5423 29.1978 30.7092L29.1978 41.8486C29.1978 42.2081 28.9064 42.4995 28.5469 42.4995C28.2257 42.4995 27.9524 42.7339 27.9036 43.0514L26.9936 48.9665C26.8809 49.699 27.4476 50.3596 28.1888 50.3596Z" fill="black"/>
<path d="M8.64046 28.1887V30.8113C8.64046 31.5524 9.30107 32.1192 10.0336 32.0065L15.9487 31.0965C16.2662 31.0476 16.5006 30.7744 16.5006 30.4532C16.5006 30.0937 16.792 29.8023 17.1515 29.8023H28.2909C28.4578 29.8023 28.5932 29.6669 28.5932 29.5C28.5932 29.333 28.4578 29.1977 28.2909 29.1977H17.1515C16.792 29.1977 16.5006 28.9063 16.5006 28.5468C16.5006 28.2256 16.2662 27.9524 15.9487 27.9035L10.0336 26.9935C9.30107 26.8808 8.64046 27.4475 8.64046 28.1887Z" fill="black"/>
<path d="M50.3598 30.8113V28.1887C50.3598 27.4476 49.6992 26.8808 48.9666 26.9935L43.0515 27.9035C42.734 27.9524 42.4996 28.2256 42.4996 28.5468C42.4996 28.9063 42.2082 29.1977 41.8487 29.1977L30.7094 29.1977C30.5424 29.1977 30.4071 29.333 30.4071 29.5C30.4071 29.667 30.5424 29.8023 30.7094 29.8023L41.8487 29.8023C42.2082 29.8023 42.4996 30.0937 42.4996 30.4532C42.4996 30.7744 42.734 31.0476 43.0515 31.0965L48.9666 32.0065C49.6992 32.1192 50.3598 31.5524 50.3598 30.8113Z" fill="black"/>
<path d="M15.6772 13.8227L13.8228 15.6772C13.2987 16.2013 13.3651 17.0691 13.9627 17.5074L18.7889 21.0466C19.0479 21.2365 19.4068 21.2091 19.634 20.9819C19.8882 20.7278 20.3003 20.7278 20.5544 20.9819L28.4312 28.8587C28.5492 28.9767 28.7406 28.9767 28.8587 28.8587C28.9768 28.7406 28.9768 28.5492 28.8587 28.4311L20.982 20.5544C20.7278 20.3002 20.7278 19.8881 20.982 19.6339C21.2091 19.4068 21.2366 19.0479 21.0466 18.7888L17.5075 13.9627C17.0692 13.365 16.2013 13.2987 15.6772 13.8227Z" fill="black"/>
<path d="M43.3227 45.1772L45.1772 43.3228C45.7013 42.7987 45.6349 41.9308 45.0372 41.4926L40.2111 37.9534C39.9521 37.7634 39.5931 37.7909 39.366 38.018C39.1118 38.2722 38.6997 38.2722 38.4455 38.018L30.5688 30.1413C30.4507 30.0233 30.2593 30.0233 30.1413 30.1413C30.0232 30.2594 30.0232 30.4508 30.1413 30.5688L38.018 38.4456C38.2722 38.6998 38.2722 39.1119 38.018 39.366C37.7908 39.5932 37.7634 39.9521 37.9534 40.2112L41.4925 45.0373C41.9308 45.6349 42.7987 45.7013 43.3227 45.1772Z" fill="black"/>
<path d="M13.8228 43.3228L15.6772 45.1772C16.2013 45.7013 17.0692 45.6349 17.5074 45.0373L21.0466 40.2112C21.2366 39.9521 21.2091 39.5932 20.982 39.366C20.7278 39.1119 20.7278 38.6998 20.982 38.4456L28.8587 30.5688C28.9767 30.4508 28.9767 30.2594 28.8587 30.1413C28.7406 30.0232 28.5492 30.0233 28.4312 30.1413L20.5544 38.018C20.3002 38.2722 19.8881 38.2722 19.634 38.018C19.4068 37.7909 19.0479 37.7634 18.7888 37.9534L13.9627 41.4926C13.3651 41.9308 13.2987 42.7987 13.8228 43.3228Z" fill="black"/>
<path d="M45.1773 15.6772L43.3228 13.8228C42.7988 13.2987 41.9309 13.3651 41.4926 13.9627L37.9535 18.7888C37.7635 19.0479 37.7909 19.4068 38.0181 19.634C38.2723 19.8882 38.2723 20.3003 38.0181 20.5544L30.1414 28.4312C30.0233 28.5492 30.0233 28.7406 30.1414 28.8587C30.2594 28.9768 30.4508 28.9768 30.5689 28.8587L38.4456 20.982C38.6998 20.7278 39.1119 20.7278 39.3661 20.982C39.5932 21.2091 39.9522 21.2366 40.2112 21.0466L45.0373 17.5075C45.635 17.0692 45.7013 16.2013 45.1773 15.6772Z" fill="black"/>
<path d="M70.492 43V17.872H85.648V19.744H72.652V29.32H85.18V31.192H72.652V41.128H85.648V43H70.492ZM90.1699 41.236H96.9379V18.124H90.1699V16.36H98.9899V41.236H105.722V43H90.1699V41.236ZM130.75 17.872H139.066C141.106 17.872 142.702 18.436 143.854 19.564C145.006 20.692 145.582 22.276 145.582 24.316C145.582 25.876 145.246 27.112 144.574 28.024C143.902 28.912 142.99 29.536 141.838 29.896V29.968C143.302 30.28 144.454 30.94 145.294 31.948C146.158 32.932 146.59 34.288 146.59 36.016C146.59 37.024 146.434 37.96 146.122 38.824C145.81 39.664 145.366 40.396 144.79 41.02C144.214 41.644 143.518 42.136 142.702 42.496C141.91 42.832 141.022 43 140.038 43H130.75V17.872ZM139.498 41.128C141.082 41.128 142.282 40.732 143.098 39.94C143.914 39.148 144.322 38.104 144.322 36.808V35.332C144.322 34.036 143.914 32.992 143.098 32.2C142.282 31.408 141.082 31.012 139.498 31.012H132.91V41.128H139.498ZM138.886 29.212C140.326 29.212 141.418 28.852 142.162 28.132C142.93 27.412 143.314 26.44 143.314 25.216V23.776C143.314 22.552 142.93 21.58 142.162 20.86C141.418 20.116 140.326 19.744 138.886 19.744H132.91V29.212H138.886ZM164.828 43C163.988 43 163.388 42.796 163.028 42.388C162.668 41.98 162.464 41.428 162.416 40.732V40.084H162.236C161.828 41.068 161.156 41.872 160.22 42.496C159.284 43.12 158.012 43.432 156.404 43.432C154.46 43.432 152.924 42.964 151.796 42.028C150.692 41.068 150.14 39.724 150.14 37.996C150.14 37.18 150.272 36.448 150.536 35.8C150.824 35.128 151.268 34.564 151.868 34.108C152.492 33.652 153.284 33.304 154.244 33.064C155.204 32.8 156.38 32.668 157.772 32.668H162.308V30.4C162.308 28.84 161.876 27.676 161.012 26.908C160.172 26.14 158.996 25.756 157.484 25.756C154.94 25.756 153.164 26.776 152.156 28.816L150.752 27.808C151.232 26.728 152.036 25.828 153.164 25.108C154.316 24.364 155.792 23.992 157.592 23.992C159.704 23.992 161.36 24.544 162.56 25.648C163.76 26.728 164.36 28.24 164.36 30.184V41.2H167.132V43H164.828ZM156.728 41.704C157.52 41.704 158.252 41.608 158.924 41.416C159.596 41.224 160.184 40.96 160.688 40.624C161.192 40.264 161.588 39.832 161.876 39.328C162.164 38.824 162.308 38.26 162.308 37.636V34.216H157.772C155.828 34.216 154.424 34.516 153.56 35.116C152.72 35.692 152.3 36.484 152.3 37.492V38.428C152.3 39.508 152.696 40.324 153.488 40.876C154.304 41.428 155.384 41.704 156.728 41.704ZM183.354 40.12H183.21C182.85 40.984 182.238 41.752 181.374 42.424C180.534 43.096 179.334 43.432 177.774 43.432C175.758 43.432 174.186 42.832 173.058 41.632C171.954 40.408 171.402 38.668 171.402 36.412V24.424H173.454V36.052C173.454 37.972 173.862 39.376 174.678 40.264C175.518 41.152 176.73 41.596 178.314 41.596C178.962 41.596 179.586 41.512 180.186 41.344C180.786 41.176 181.314 40.924 181.77 40.588C182.25 40.252 182.634 39.832 182.922 39.328C183.21 38.8 183.354 38.188 183.354 37.492V24.424H185.406V43H183.354V40.12ZM178.35 21.76L177.018 21.112L180.438 15.208L182.31 16.144L178.35 21.76ZM190.9 41.236H197.668V18.124H190.9V16.36H199.72V41.236H206.452V43H190.9V41.236ZM243.863 40.048H243.755C243.227 41.056 242.483 41.872 241.523 42.496C240.587 43.12 239.411 43.432 237.995 43.432C235.667 43.432 233.855 42.604 232.559 40.948C231.263 39.268 230.615 36.856 230.615 33.712C230.615 30.568 231.263 28.168 232.559 26.512C233.855 24.832 235.667 23.992 237.995 23.992C239.411 23.992 240.587 24.304 241.523 24.928C242.483 25.552 243.227 26.368 243.755 27.376H243.863V16.36H245.915V43H243.863V40.048ZM238.679 41.596C239.375 41.596 240.035 41.5 240.659 41.308C241.283 41.116 241.835 40.84 242.315 40.48C242.795 40.12 243.167 39.676 243.431 39.148C243.719 38.62 243.863 38.032 243.863 37.384V30.04C243.863 29.392 243.719 28.804 243.431 28.276C243.167 27.748 242.795 27.304 242.315 26.944C241.835 26.584 241.283 26.308 240.659 26.116C240.035 25.924 239.375 25.828 238.679 25.828C236.807 25.828 235.355 26.416 234.323 27.592C233.315 28.768 232.811 30.376 232.811 32.416V35.008C232.811 37.048 233.315 38.656 234.323 39.832C235.355 41.008 236.807 41.596 238.679 41.596ZM259.401 43.432C256.809 43.432 254.769 42.592 253.281 40.912C251.817 39.208 251.085 36.82 251.085 33.748C251.085 32.212 251.277 30.844 251.661 29.644C252.045 28.42 252.585 27.4 253.281 26.584C254.001 25.744 254.865 25.108 255.873 24.676C256.881 24.22 257.997 23.992 259.221 23.992C260.469 23.992 261.585 24.22 262.569 24.676C263.553 25.108 264.381 25.732 265.053 26.548C265.749 27.364 266.277 28.336 266.637 29.464C266.997 30.592 267.177 31.84 267.177 33.208V34.108H253.245V35.008C253.245 37 253.785 38.608 254.865 39.832C255.945 41.032 257.457 41.632 259.401 41.632C260.769 41.632 261.933 41.32 262.893 40.696C263.877 40.072 264.633 39.148 265.161 37.924L266.709 38.896C266.157 40.264 265.257 41.368 264.009 42.208C262.761 43.024 261.225 43.432 259.401 43.432ZM259.221 25.72C258.309 25.72 257.481 25.888 256.737 26.224C256.017 26.536 255.393 26.98 254.865 27.556C254.361 28.132 253.965 28.828 253.677 29.644C253.389 30.46 253.245 31.36 253.245 32.344V32.56H264.981V32.272C264.981 30.256 264.465 28.66 263.433 27.484C262.425 26.308 261.021 25.72 259.221 25.72ZM291.629 41.236H298.397V18.124H291.629V16.36H300.449V41.236H307.181V43H291.629V41.236ZM325.995 43C325.155 43 324.555 42.796 324.195 42.388C323.835 41.98 323.631 41.428 323.583 40.732V40.084H323.403C322.995 41.068 322.323 41.872 321.387 42.496C320.451 43.12 319.179 43.432 317.571 43.432C315.627 43.432 314.091 42.964 312.963 42.028C311.859 41.068 311.307 39.724 311.307 37.996C311.307 37.18 311.439 36.448 311.703 35.8C311.991 35.128 312.435 34.564 313.035 34.108C313.659 33.652 314.451 33.304 315.411 33.064C316.371 32.8 317.547 32.668 318.939 32.668H323.475V30.4C323.475 28.84 323.043 27.676 322.179 26.908C321.339 26.14 320.163 25.756 318.651 25.756C316.107 25.756 314.331 26.776 313.323 28.816L311.919 27.808C312.399 26.728 313.203 25.828 314.331 25.108C315.483 24.364 316.959 23.992 318.759 23.992C320.871 23.992 322.527 24.544 323.727 25.648C324.927 26.728 325.527 28.24 325.527 30.184V41.2H328.299V43H325.995ZM317.895 41.704C318.687 41.704 319.419 41.608 320.091 41.416C320.763 41.224 321.351 40.96 321.855 40.624C322.359 40.264 322.755 39.832 323.043 39.328C323.331 38.824 323.475 38.26 323.475 37.636V34.216H318.939C316.995 34.216 315.591 34.516 314.727 35.116C313.887 35.692 313.467 36.484 313.467 37.492V38.428C313.467 39.508 313.863 40.324 314.655 40.876C315.471 41.428 316.551 41.704 317.895 41.704ZM352.175 43V41.272H358.763V19.6H352.175V17.872H367.511V19.6H360.923V41.272H367.511V43H352.175ZM387.117 43L384.741 35.332H375.237L372.825 43H370.593L378.585 17.872H381.429L389.385 43H387.117ZM380.097 20.176H379.845L375.741 33.46H384.201L380.097 20.176Z" fill="black"/>
<path d="M428.812 8.64034H426.189C425.448 8.64034 424.881 9.30096 424.994 10.0335L425.904 15.9486C425.953 16.2661 426.226 16.5005 426.547 16.5005C426.907 16.5005 427.198 16.7919 427.198 17.1514V28.2907C427.198 28.4577 427.333 28.5931 427.5 28.5931C427.667 28.5931 427.803 28.4577 427.803 28.2907V17.1514C427.803 16.7919 428.094 16.5005 428.453 16.5005C428.775 16.5005 429.048 16.2661 429.097 15.9486L430.007 10.0335C430.119 9.30096 429.553 8.64034 428.812 8.64034Z" fill="black"/>
<path d="M426.189 50.3596H428.811C429.552 50.3596 430.119 49.699 430.007 48.9665L429.097 43.0514C429.048 42.7339 428.774 42.4995 428.453 42.4995C428.094 42.4995 427.802 42.2081 427.802 41.8486V30.7092C427.802 30.5423 427.667 30.4069 427.5 30.4069C427.333 30.4069 427.198 30.5423 427.198 30.7092V41.8486C427.198 42.2081 426.906 42.4995 426.547 42.4995C426.226 42.4995 425.952 42.7339 425.904 43.0514L424.994 48.9665C424.881 49.699 425.448 50.3596 426.189 50.3596Z" fill="black"/>
<path d="M406.64 28.1887V30.8113C406.64 31.5524 407.301 32.1192 408.034 32.0065L413.949 31.0965C414.266 31.0476 414.501 30.7744 414.501 30.4532C414.501 30.0937 414.792 29.8023 415.151 29.8023H426.291C426.458 29.8023 426.593 29.6669 426.593 29.5C426.593 29.333 426.458 29.1977 426.291 29.1977H415.151C414.792 29.1977 414.501 28.9063 414.501 28.5468C414.501 28.2256 414.266 27.9524 413.949 27.9035L408.034 26.9935C407.301 26.8808 406.64 27.4475 406.64 28.1887Z" fill="black"/>
<path d="M448.36 30.8113V28.1887C448.36 27.4476 447.699 26.8808 446.967 26.9935L441.052 27.9035C440.734 27.9524 440.5 28.2256 440.5 28.5468C440.5 28.9063 440.208 29.1977 439.849 29.1977L428.709 29.1977C428.542 29.1977 428.407 29.333 428.407 29.5C428.407 29.667 428.542 29.8023 428.709 29.8023L439.849 29.8023C440.208 29.8023 440.5 30.0937 440.5 30.4532C440.5 30.7744 440.734 31.0476 441.052 31.0965L446.967 32.0065C447.699 32.1192 448.36 31.5524 448.36 30.8113Z" fill="black"/>
<path d="M413.677 13.8227L411.823 15.6772C411.299 16.2013 411.365 17.0691 411.963 17.5074L416.789 21.0466C417.048 21.2365 417.407 21.2091 417.634 20.9819C417.888 20.7278 418.3 20.7278 418.554 20.9819L426.431 28.8587C426.549 28.9767 426.741 28.9767 426.859 28.8587C426.977 28.7406 426.977 28.5492 426.859 28.4311L418.982 20.5544C418.728 20.3002 418.728 19.8881 418.982 19.6339C419.209 19.4068 419.237 19.0479 419.047 18.7888L415.507 13.9627C415.069 13.365 414.201 13.2987 413.677 13.8227Z" fill="black"/>
<path d="M441.323 45.1772L443.177 43.3228C443.701 42.7987 443.635 41.9308 443.037 41.4926L438.211 37.9534C437.952 37.7634 437.593 37.7909 437.366 38.018C437.112 38.2722 436.7 38.2722 436.446 38.018L428.569 30.1413C428.451 30.0233 428.259 30.0233 428.141 30.1413C428.023 30.2594 428.023 30.4508 428.141 30.5688L436.018 38.4456C436.272 38.6998 436.272 39.1119 436.018 39.366C435.791 39.5932 435.763 39.9521 435.953 40.2112L439.493 45.0373C439.931 45.6349 440.799 45.7013 441.323 45.1772Z" fill="black"/>
<path d="M411.823 43.3228L413.677 45.1772C414.201 45.7013 415.069 45.6349 415.507 45.0373L419.047 40.2112C419.237 39.9521 419.209 39.5932 418.982 39.366C418.728 39.1119 418.728 38.6998 418.982 38.4456L426.859 30.5688C426.977 30.4508 426.977 30.2594 426.859 30.1413C426.741 30.0232 426.549 30.0233 426.431 30.1413L418.554 38.018C418.3 38.2722 417.888 38.2722 417.634 38.018C417.407 37.7909 417.048 37.7634 416.789 37.9534L411.963 41.4926C411.365 41.9308 411.299 42.7987 411.823 43.3228Z" fill="black"/>
<path d="M443.177 15.6772L441.323 13.8228C440.799 13.2987 439.931 13.3651 439.493 13.9627L435.953 18.7888C435.763 19.0479 435.791 19.4068 436.018 19.634C436.272 19.8882 436.272 20.3003 436.018 20.5544L428.141 28.4312C428.023 28.5492 428.023 28.7406 428.141 28.8587C428.259 28.9768 428.451 28.9768 428.569 28.8587L436.446 20.982C436.7 20.7278 437.112 20.7278 437.366 20.982C437.593 21.2091 437.952 21.2366 438.211 21.0466L443.037 17.5075C443.635 17.0692 443.701 16.2013 443.177 15.6772Z" fill="black"/>
</svg>
