<svg width="493" height="104" viewBox="0 0 493 104" fill="none" xmlns="http://www.w3.org/2000/svg">
<path d="M134.872 76L130.648 62.368H113.752L109.464 76H105.496L119.704 31.328H124.76L138.904 76H134.872ZM122.392 35.424H121.944L114.648 59.04H129.688L122.392 35.424ZM144.383 76V72.928H156.095V34.4H144.383V31.328H171.647V34.4H159.935V72.928H171.647V76H144.383ZM178.47 86.112V82.784H209.19V86.112H178.47ZM227.021 76L213.197 31.328H217.293L229.581 72.032H229.837L242.189 31.328H246.093L232.269 76H227.021ZM276.916 76C275.423 76 274.356 75.6373 273.716 74.912C273.076 74.1867 272.713 73.2053 272.628 71.968V70.816H272.308C271.583 72.5653 270.388 73.9947 268.724 75.104C267.06 76.2133 264.799 76.768 261.94 76.768C258.484 76.768 255.753 75.936 253.748 74.272C251.785 72.5653 250.804 70.176 250.804 67.104C250.804 65.6533 251.039 64.352 251.508 63.2C252.02 62.0053 252.809 61.0027 253.876 60.192C254.985 59.3813 256.393 58.7627 258.1 58.336C259.807 57.8667 261.897 57.632 264.372 57.632H272.436V53.6C272.436 50.8267 271.668 48.7573 270.132 47.392C268.639 46.0267 266.548 45.344 263.86 45.344C259.337 45.344 256.18 47.1573 254.388 50.784L251.892 48.992C252.745 47.072 254.175 45.472 256.18 44.192C258.228 42.8693 260.852 42.208 264.052 42.208C267.807 42.208 270.751 43.1893 272.884 45.152C275.017 47.072 276.084 49.76 276.084 53.216V72.8H281.012V76H276.916ZM262.516 73.696C263.924 73.696 265.225 73.5253 266.42 73.184C267.615 72.8427 268.66 72.3733 269.556 71.776C270.452 71.136 271.156 70.368 271.668 69.472C272.18 68.576 272.436 67.5733 272.436 66.464V60.384H264.372C260.916 60.384 258.42 60.9173 256.884 61.984C255.391 63.008 254.644 64.416 254.644 66.208V67.872C254.644 69.792 255.348 71.2427 256.756 72.224C258.207 73.2053 260.127 73.696 262.516 73.696ZM309.851 70.88H309.595C308.955 72.416 307.867 73.7813 306.331 74.976C304.838 76.1707 302.704 76.768 299.931 76.768C296.347 76.768 293.552 75.7013 291.547 73.568C289.584 71.392 288.603 68.2987 288.603 64.288V42.976H292.251V63.648C292.251 67.0613 292.976 69.5573 294.427 71.136C295.92 72.7147 298.075 73.504 300.891 73.504C302.043 73.504 303.152 73.3547 304.219 73.056C305.286 72.7573 306.224 72.3093 307.035 71.712C307.888 71.1147 308.571 70.368 309.083 69.472C309.595 68.5333 309.851 67.4453 309.851 66.208V42.976H313.499V76H309.851V70.88ZM323.266 72.864H335.298V31.776H323.266V28.64H338.946V72.864H350.914V76H323.266V72.864ZM373.033 76C371.241 76 369.918 75.5307 369.065 74.592C368.254 73.6107 367.849 72.3093 367.849 70.688V46.112H356.137V42.976H365.417C366.356 42.976 367.017 42.784 367.401 42.4C367.785 42.016 367.977 41.3547 367.977 40.416V31.328H371.497V42.976H387.241V46.112H371.497V72.864H387.241V76H373.033Z" fill="black"/>
<path d="M443.312 15.2305H438.689C437.383 15.2305 436.383 16.3949 436.582 17.6862L438.186 28.1128C438.272 28.6725 438.754 29.0857 439.32 29.0857C439.954 29.0857 440.467 29.5993 440.467 30.233V49.8685C440.467 50.1628 440.706 50.4013 441 50.4013C441.295 50.4013 441.533 50.1628 441.533 49.8685V30.233C441.533 29.5993 442.047 29.0857 442.681 29.0857C443.247 29.0857 443.728 28.6725 443.815 28.1128L445.419 17.6862C445.617 16.3949 444.618 15.2305 443.312 15.2305Z" fill="black"/>
<path d="M438.689 88.7695H443.312C444.618 88.7695 445.617 87.6051 445.418 86.3138L443.814 75.8872C443.728 75.3275 443.247 74.9143 442.68 74.9143C442.047 74.9143 441.533 74.4007 441.533 73.767V54.1315C441.533 53.8372 441.294 53.5987 441 53.5987C440.706 53.5987 440.467 53.8372 440.467 54.1315V73.767C440.467 74.4007 439.954 74.9143 439.32 74.9143C438.754 74.9143 438.272 75.3275 438.186 75.8872L436.582 86.3138C436.383 87.6051 437.382 88.7695 438.689 88.7695Z" fill="black"/>
<path d="M404.231 49.6885V54.3114C404.231 55.6178 405.395 56.6169 406.686 56.4182L417.113 54.8141C417.673 54.728 418.086 54.2464 418.086 53.6802C418.086 53.0465 418.6 52.5329 419.233 52.5329H438.869C439.163 52.5329 439.402 52.2943 439.402 52C439.402 51.7057 439.163 51.4671 438.869 51.4671H419.233C418.6 51.4671 418.086 50.9534 418.086 50.3198C418.086 49.7535 417.673 49.272 417.113 49.1859L406.686 47.5818C405.395 47.3831 404.231 48.3821 404.231 49.6885Z" fill="black"/>
<path d="M477.77 54.3115V49.6886C477.77 48.3822 476.605 47.3831 475.314 47.5818L464.887 49.1859C464.328 49.272 463.915 49.7536 463.915 50.3198C463.915 50.9535 463.401 51.4671 462.767 51.4671L443.132 51.4671C442.837 51.4671 442.599 51.7057 442.599 52C442.599 52.2943 442.837 52.5329 443.132 52.5329L462.767 52.5329C463.401 52.5329 463.915 53.0466 463.915 53.6802C463.915 54.2465 464.328 54.728 464.887 54.8141L475.314 56.4182C476.605 56.6169 477.77 55.6179 477.77 54.3115Z" fill="black"/>
<path d="M416.634 24.3656L413.366 27.6345C412.442 28.5583 412.559 30.0881 413.612 30.8606L422.119 37.0991C422.576 37.434 423.209 37.3856 423.609 36.9852C424.057 36.5372 424.783 36.5372 425.231 36.9852L439.116 50.8696C439.324 51.0777 439.661 51.0777 439.87 50.8696C440.078 50.6615 440.078 50.3241 439.87 50.116L425.985 36.2316C425.537 35.7836 425.537 35.0571 425.985 34.6091C426.386 34.2087 426.434 33.576 426.099 33.1194L419.861 24.6123C419.088 23.5588 417.558 23.4418 416.634 24.3656Z" fill="black"/>
<path d="M465.365 79.6344L468.634 76.3655C469.558 75.4417 469.441 73.9119 468.388 73.1394L459.88 66.9009C459.424 66.566 458.791 66.6144 458.391 67.0148C457.943 67.4628 457.216 67.4628 456.768 67.0148L442.884 53.1304C442.676 52.9223 442.338 52.9223 442.13 53.1304C441.922 53.3385 441.922 53.6759 442.13 53.884L456.015 67.7684C456.463 68.2164 456.463 68.9429 456.015 69.3909C455.614 69.7913 455.566 70.424 455.901 70.8806L462.139 79.3877C462.912 80.4412 464.442 80.5582 465.365 79.6344Z" fill="black"/>
<path d="M413.366 76.3656L416.634 79.6345C417.558 80.5583 419.088 80.4413 419.861 79.3878L426.099 70.8807C426.434 70.4241 426.386 69.7914 425.985 69.391C425.537 68.943 425.537 68.2166 425.985 67.7685L439.87 53.8841C440.078 53.676 440.078 53.3386 439.87 53.1305C439.662 52.9224 439.324 52.9224 439.116 53.1305L425.232 67.0149C424.784 67.4629 424.057 67.4629 423.609 67.0149C423.209 66.6145 422.576 66.5661 422.119 66.901L413.612 73.1395C412.559 73.912 412.442 75.4418 413.366 76.3656Z" fill="black"/>
<path d="M468.635 27.6344L465.366 24.3655C464.442 23.4417 462.912 23.5587 462.14 24.6122L455.901 33.1193C455.566 33.5759 455.615 34.2086 456.015 34.609C456.463 35.057 456.463 35.7834 456.015 36.2315L442.131 50.1159C441.923 50.324 441.923 50.6614 442.131 50.8695C442.339 51.0776 442.676 51.0776 442.884 50.8695L456.769 36.9851C457.217 36.5371 457.943 36.5371 458.391 36.9851C458.792 37.3855 459.424 37.4339 459.881 37.099L468.388 30.8605C469.441 30.088 469.558 28.5582 468.635 27.6344Z" fill="black"/>
<path d="M454.901 51.7425C454.901 59.562 448.562 65.9009 440.743 65.9009C432.923 65.9009 426.584 59.562 426.584 51.7425C426.584 43.923 432.923 37.5841 440.743 37.5841C448.562 37.5841 454.901 43.923 454.901 51.7425ZM427.461 51.7425C427.461 59.078 433.407 65.0246 440.743 65.0246C448.078 65.0246 454.025 59.078 454.025 51.7425C454.025 44.407 448.078 38.4604 440.743 38.4604C433.407 38.4604 427.461 44.407 427.461 51.7425Z" fill="black"/>
<path d="M54.3118 15.2305H49.6889C48.3825 15.2305 47.3835 16.3949 47.5821 17.6862L49.1862 28.1128C49.2724 28.6725 49.7539 29.0857 50.3202 29.0857C50.9538 29.0857 51.4675 29.5993 51.4675 30.233V49.8685C51.4675 50.1628 51.7061 50.4013 52.0004 50.4013C52.2947 50.4013 52.5333 50.1628 52.5333 49.8685V30.233C52.5333 29.5993 53.0469 29.0857 53.6806 29.0857C54.2468 29.0857 54.7284 28.6725 54.8145 28.1128L56.4186 17.6862C56.6173 16.3949 55.6182 15.2305 54.3118 15.2305Z" fill="black"/>
<path d="M49.6887 88.7695H54.3116C55.618 88.7695 56.617 87.6051 56.4183 86.3138L54.8142 75.8872C54.7281 75.3275 54.2466 74.9143 53.6803 74.9143C53.0467 74.9143 52.533 74.4007 52.533 73.767L52.533 54.1315C52.533 53.8372 52.2944 53.5987 52.0001 53.5987C51.7058 53.5987 51.4672 53.8372 51.4672 54.1315L51.4672 73.767C51.4672 74.4007 50.9536 74.9143 50.3199 74.9143C49.7537 74.9143 49.2721 75.3275 49.186 75.8872L47.5819 86.3138C47.3832 87.6051 48.3823 88.7695 49.6887 88.7695Z" fill="black"/>
<path d="M15.2307 49.6885V54.3114C15.2307 55.6178 16.3952 56.6169 17.6864 56.4182L28.1131 54.8141C28.6728 54.728 29.0859 54.2464 29.0859 53.6802C29.0859 53.0465 29.5996 52.5329 30.2332 52.5329H49.8687C50.163 52.5329 50.4016 52.2943 50.4016 52C50.4016 51.7057 50.163 51.4671 49.8687 51.4671H30.2332C29.5996 51.4671 29.0859 50.9534 29.0859 50.3198C29.0859 49.7535 28.6728 49.272 28.1131 49.1859L17.6864 47.5818C16.3952 47.3831 15.2307 48.3821 15.2307 49.6885Z" fill="black"/>
<path d="M88.7698 54.3115V49.6886C88.7698 48.3822 87.6053 47.3831 86.3141 47.5818L75.8874 49.1859C75.3277 49.272 74.9146 49.7536 74.9146 50.3198C74.9146 50.9535 74.4009 51.4671 73.7673 51.4671L54.1318 51.4671C53.8375 51.4671 53.5989 51.7057 53.5989 52C53.5989 52.2943 53.8375 52.5329 54.1318 52.5329L73.7673 52.5329C74.4009 52.5329 74.9146 53.0466 74.9146 53.6802C74.9146 54.2465 75.3277 54.728 75.8874 54.8141L86.3141 56.4182C87.6053 56.6169 88.7698 55.6179 88.7698 54.3115Z" fill="black"/>
<path d="M27.6344 24.3656L24.3655 27.6345C23.4417 28.5583 23.5587 30.0881 24.6122 30.8606L33.1193 37.0991C33.5759 37.434 34.2086 37.3856 34.609 36.9852C35.057 36.5372 35.7834 36.5372 36.2315 36.9852L50.1159 50.8696C50.324 51.0777 50.6614 51.0777 50.8695 50.8696C51.0776 50.6615 51.0776 50.3241 50.8695 50.116L36.9851 36.2316C36.5371 35.7836 36.5371 35.0571 36.9851 34.6091C37.3855 34.2087 37.4339 33.576 37.099 33.1194L30.8605 24.6123C30.088 23.5588 28.5582 23.4418 27.6344 24.3656Z" fill="black"/>
<path d="M76.3654 79.6344L79.6342 76.3655C80.558 75.4417 80.441 73.9119 79.3875 73.1394L70.8805 66.9009C70.4239 66.566 69.7912 66.6144 69.3908 67.0148C68.9427 67.4628 68.2163 67.4628 67.7683 67.0148L53.8839 53.1304C53.6758 52.9223 53.3383 52.9223 53.1302 53.1304C52.9221 53.3385 52.9221 53.6759 53.1302 53.884L67.0146 67.7684C67.4627 68.2164 67.4627 68.9429 67.0146 69.3909C66.6142 69.7913 66.5658 70.424 66.9007 70.8806L73.1392 79.3877C73.9118 80.4412 75.4416 80.5582 76.3654 79.6344Z" fill="black"/>
<path d="M24.3656 76.3656L27.6345 79.6345C28.5583 80.5583 30.0881 80.4413 30.8606 79.3878L37.0991 70.8807C37.434 70.4241 37.3856 69.7914 36.9852 69.391C36.5372 68.943 36.5372 68.2166 36.9852 67.7685L50.8696 53.8841C51.0777 53.676 51.0777 53.3386 50.8696 53.1305C50.6615 52.9224 50.3241 52.9224 50.116 53.1305L36.2316 67.0149C35.7836 67.4629 35.0571 67.4629 34.6091 67.0149C34.2087 66.6145 33.576 66.5661 33.1194 66.901L24.6123 73.1395C23.5588 73.912 23.4418 75.4418 24.3656 76.3656Z" fill="black"/>
<path d="M79.6346 27.6344L76.3658 24.3655C75.442 23.4417 73.9122 23.5587 73.1396 24.6122L66.9011 33.1193C66.5662 33.5759 66.6146 34.2086 67.015 34.609C67.4631 35.057 67.4631 35.7834 67.015 36.2315L53.1306 50.1159C52.9225 50.324 52.9225 50.6614 53.1306 50.8695C53.3387 51.0776 53.6761 51.0776 53.8842 50.8695L67.7686 36.9851C68.2167 36.5371 68.9431 36.5371 69.3912 36.9851C69.7916 37.3855 70.4242 37.4339 70.8809 37.099L79.3879 30.8605C80.4414 30.088 80.5584 28.5582 79.6346 27.6344Z" fill="black"/>
<path d="M65.9011 51.7425C65.9011 59.562 59.5621 65.9009 51.7426 65.9009C43.9232 65.9009 37.5842 59.562 37.5842 51.7425C37.5842 43.923 43.9232 37.5841 51.7426 37.5841C59.5621 37.5841 65.9011 43.923 65.9011 51.7425ZM38.4605 51.7425C38.4605 59.078 44.4071 65.0246 51.7426 65.0246C59.0781 65.0246 65.0247 59.078 65.0247 51.7425C65.0247 44.407 59.0781 38.4604 51.7426 38.4604C44.4071 38.4604 38.4605 44.407 38.4605 51.7425Z" fill="black"/>
</svg>
